<svg id="a21a6abc-98ce-4646-9306-6e7ab6ae96d0" data-name="Capa 1" xmlns="http://www.w3.org/2000/svg" xmlns:xlink="http://www.w3.org/1999/xlink" viewBox="0 0 436.02 187.23"><defs><style>.ef415d0f-ef35-4729-82a6-bb6d627b19a7{fill:none;}.a54a05b6-f80e-455c-9c28-a0b6c6dd5a02{clip-path:url(#f20a55d2-be4d-453e-b562-7324fb383d1c);}.baa6cc6a-6c93-4bbb-9009-91858b147a4f{fill:#00417b;}.b7f15017-7113-4df9-8265-3a8dfb251f48{fill:#002444;}.fe622ba5-0731-41da-a897-0deef799620a{fill:#fff;}</style><clipPath id="f20a55d2-be4d-453e-b562-7324fb383d1c" transform="translate(-69.93 -173.83)"><rect class="ef415d0f-ef35-4729-82a6-bb6d627b19a7" width="566.93" height="566.93"/></clipPath></defs><title>INTEGRA LM SVG</title><g class="a54a05b6-f80e-455c-9c28-a0b6c6dd5a02"><path class="baa6cc6a-6c93-4bbb-9009-91858b147a4f" d="M466.38,247.57l-18.24-22.95a2.21,2.21,0,0,0-3.45,0L426.2,247.56a2.21,2.21,0,0,0,1.72,3.59h6.54a2.22,2.22,0,0,1,2.23,2.21v9.58a1.76,1.76,0,0,1-1.78,1.71h-40.7a24.45,24.45,0,0,1-23.76-30.12,23.92,23.92,0,0,1,12.6-16A24.59,24.59,0,0,1,401.66,217l5.95,1.9,6,1.91,2.78-5.6,2.36-4.76a39.39,39.39,0,0,1,25.5-20.95c23.9-5.9,46.22,12.4,47.16,35.44a38.15,38.15,0,0,1-33.69,39.41,1.65,1.65,0,0,1-1.81-1.72v-9.29a2.17,2.17,0,0,1,2.17-2.19h6.62a2.21,2.21,0,0,0,1.72-3.58Z" transform="translate(-69.93 -173.83)"/><path class="baa6cc6a-6c93-4bbb-9009-91858b147a4f" d="M505.79,222.4a52.65,52.65,0,0,0-99.69-19.27,39,39,0,1,0-11.89,76.08h32.17a1.54,1.54,0,0,0,1.55-1.55v-4.19a1.54,1.54,0,0,0-1.55-1.54H394.89c-15.83,0-29.78-11.34-32-27a31.7,31.7,0,0,1,41-34.86l5.95,1.91,2.78-5.6a45.24,45.24,0,0,1,46.06-25c20.18,2.34,37.64,20,39.75,40.23a45.47,45.47,0,0,1-45.16,50.29H436.69v16.7a2.16,2.16,0,0,1-2.14,2.2h-6.64a2.2,2.2,0,0,0-1.72,3.57l18.24,23a2.22,2.22,0,0,0,3.45,0l18.48-23a2.2,2.2,0,0,0-1.71-3.58h-6.54a2.23,2.23,0,0,1-2.24-2.22v-9.54a52.71,52.71,0,0,0,49.93-56.68Z" transform="translate(-69.93 -173.83)"/><rect class="b7f15017-7113-4df9-8265-3a8dfb251f48" x="6.78" y="102.24" width="14.4" height="51.41"/><path class="b7f15017-7113-4df9-8265-3a8dfb251f48" d="M124.69,301.74c0-2.95-.94-3.82-2.74-3.82s-2.81,1.59-2.81,3.82v25.78h-14v-39h13.54V293h.14c2.09-3.82,5.62-5.47,10.3-5.47,5,0,9.5,2.73,9.5,9.86v30.1h-14Z" transform="translate(-69.93 -173.83)"/><path class="b7f15017-7113-4df9-8265-3a8dfb251f48" d="M151.83,277.11h14v11.45h4.89v9.08H165.8V315c0,2.52.36,3.6,2.66,3.6a7.87,7.87,0,0,0,2.23-.22v9.29c-1.15.15-4.82.43-6.91.43-8,0-11.95-.28-11.95-9.07V297.64h-4.25v-9.08h4.25Z" transform="translate(-69.93 -173.83)"/><path class="b7f15017-7113-4df9-8265-3a8dfb251f48" d="M192.58,315.42c0,2.09.14,4.9,3,4.9s3-2.52,3-6.48H211.3c0,5.33-1.44,9-4.17,11.3s-6.7,3.39-11.45,3.39c-15.41,0-17.07-9.51-17.07-20.52s1.66-20.45,17.07-20.45c15.91,0,16,9.93,16,22.1v.65H192.58Zm6-14.76c0-3.82-.87-4.9-3.1-4.9-2,0-2.95,1.08-2.95,4.9V303h6Z" transform="translate(-69.93 -173.83)"/><path class="b7f15017-7113-4df9-8265-3a8dfb251f48" d="M241.61,288.56h13.32v37.37c0,11.31-6.91,14.84-17.13,14.84-14.62,0-15.49-6.63-15.85-11.24h12.68a3.34,3.34,0,0,0,.65,2.16,2.78,2.78,0,0,0,2.3.87c2.38,0,3.38-.94,3.38-3.6v-7.71h-.14c-1.73,3.82-5,5-8.86,5-9.21,0-11.09-9.86-11.09-18.94,0-8.78.8-19.72,12.1-19.72,4.39,0,7,1.94,8.5,5.83h.14Zm-3.6,9.36c-2.73,0-3.17,2.81-3.17,10.08,0,5.4.44,8.29,3.1,8.29,2.81,0,3.24-2.89,3.24-8.29,0-7.27-.43-10.08-3.17-10.08" transform="translate(-69.93 -173.83)"/><path class="b7f15017-7113-4df9-8265-3a8dfb251f48" d="M266,288.56h13.54v5.76h.14c1.37-3.74,4.46-6.76,8.28-6.76a10.37,10.37,0,0,1,2.38.21v12.75c-.51-.08-1.08-.15-1.73-.22a25,25,0,0,0-2.67-.07c-4.82,0-6,2.52-6,7.13v20.16H266Z" transform="translate(-69.93 -173.83)"/><path class="b7f15017-7113-4df9-8265-3a8dfb251f48" d="M330.32,321.76a13.29,13.29,0,0,0,1.29,5.76h-13.1a11.8,11.8,0,0,1-.65-4.11l-.14-.07c-1.66,3.82-5.19,5.19-9.15,5.19-7.42,0-10.58-4-10.58-11.52,0-8.64,4-11,9.28-12.25l6.48-1.51c2.89-.65,3.89-1.51,3.89-4,0-1.94-1.15-3-2.66-3-3,0-3.39,2.23-3.39,4.46H299.35c0-8.78,4.61-13.1,15.7-13.1,12.75,0,15.27,5.18,15.27,11.23Zm-12.68-13.11a17.88,17.88,0,0,1-3.45,1.52c-2.31.86-2.67,2.66-2.67,5s.87,3.89,2.81,3.89c2.74,0,3.31-2.52,3.31-4.75Z" transform="translate(-69.93 -173.83)"/><rect class="baa6cc6a-6c93-4bbb-9009-91858b147a4f" x="272.62" y="102.28" width="13.97" height="51.41"/><path class="baa6cc6a-6c93-4bbb-9009-91858b147a4f" d="M407.21,301.74c0-2.95-.93-3.82-2.73-3.82s-2.81,1.59-2.81,3.82v25.78h-14V301.74c0-2.95-.94-3.82-2.74-3.82s-2.81,1.59-2.81,3.82v25.78h-14v-39h13.53V293h.15c2.08-3.82,5.61-5.47,10.29-5.47a9.93,9.93,0,0,1,9.29,5.47c2-3.82,5.55-5.47,10.23-5.47,5,0,9.5,2.73,9.5,9.86v30.1h-14Z" transform="translate(-69.93 -173.83)"/><rect class="baa6cc6a-6c93-4bbb-9009-91858b147a4f" x="39.03" y="173.9" width="2.32" height="13.08"/><path class="baa6cc6a-6c93-4bbb-9009-91858b147a4f" d="M116.6,347.73H119l4.07,7.35,1.35,2.79h.08c-.11-1.35-.29-3-.29-4.46v-5.68h2.2v13.08H124L120,353.45l-1.36-2.78h-.08c.11,1.38.3,2.95.3,4.41v5.73H116.6Z" transform="translate(-69.93 -173.83)"/><polygon class="baa6cc6a-6c93-4bbb-9009-91858b147a4f" points="61.79 173.9 69.69 173.9 69.69 175.85 64.11 175.85 64.11 179.57 68.86 179.57 68.86 181.52 64.11 181.52 64.11 186.99 61.79 186.99 61.79 173.9"/><path class="baa6cc6a-6c93-4bbb-9009-91858b147a4f" d="M143,354.22c0-4.24,2.36-6.73,5.77-6.73s5.77,2.51,5.77,6.73-2.36,6.83-5.77,6.83-5.77-2.6-5.77-6.83m9.16,0c0-2.94-1.33-4.72-3.39-4.72s-3.38,1.78-3.38,4.72,1.32,4.81,3.38,4.81,3.39-1.88,3.39-4.81" transform="translate(-69.93 -173.83)"/><path class="baa6cc6a-6c93-4bbb-9009-91858b147a4f" d="M159.2,347.73h4.41c2.72,0,4.82,1,4.82,3.88s-2.1,4.09-4.82,4.09h-2.09v5.11H159.2Zm4.17,6.11c1.79,0,2.77-.74,2.77-2.23s-1-2-2.77-2h-1.85v4.26Zm-.2,1.24,1.68-1.39,4.09,7.12h-2.61Z" transform="translate(-69.93 -173.83)"/><path class="baa6cc6a-6c93-4bbb-9009-91858b147a4f" d="M173,347.73h2.62l2.32,6.39c.28.83.55,1.71.84,2.57h.08c.28-.86.53-1.74.82-2.57l2.27-6.39h2.62v13.08h-2.13v-6c0-1.21.19-2.95.3-4.16h-.08l-1.06,3-2.15,5.87h-1.38L176,353.71l-1-3h-.08c.11,1.21.3,2.95.3,4.16v6H173Z" transform="translate(-69.93 -173.83)"/><path class="baa6cc6a-6c93-4bbb-9009-91858b147a4f" d="M192.5,347.73h2.72l4.27,13.08H197l-2-7c-.42-1.38-.8-2.88-1.19-4.31h-.08c-.36,1.44-.74,2.93-1.16,4.31l-2,7h-2.36Zm-1.74,7.72h6.16v1.82h-6.16Z" transform="translate(-69.93 -173.83)"/><polygon class="baa6cc6a-6c93-4bbb-9009-91858b147a4f" points="134.53 175.85 130.75 175.85 130.75 173.9 140.63 173.9 140.63 175.85 136.85 175.85 136.85 186.99 134.53 186.99 134.53 175.85"/><rect class="baa6cc6a-6c93-4bbb-9009-91858b147a4f" x="144.81" y="173.9" width="2.32" height="13.08"/><path class="baa6cc6a-6c93-4bbb-9009-91858b147a4f" d="M221.69,354.22c0-4.24,2.36-6.73,5.77-6.73s5.77,2.51,5.77,6.73-2.36,6.83-5.77,6.83-5.77-2.6-5.77-6.83m9.16,0c0-2.94-1.33-4.72-3.39-4.72s-3.38,1.78-3.38,4.72,1.32,4.81,3.38,4.81,3.39-1.88,3.39-4.81" transform="translate(-69.93 -173.83)"/><path class="baa6cc6a-6c93-4bbb-9009-91858b147a4f" d="M237.86,347.73h2.38l4.07,7.35,1.35,2.79h.08c-.11-1.35-.3-3-.3-4.46v-5.68h2.21v13.08h-2.38l-4.07-7.36-1.35-2.78h-.08c.11,1.38.3,2.95.3,4.41v5.73h-2.21Z" transform="translate(-69.93 -173.83)"/><polygon class="baa6cc6a-6c93-4bbb-9009-91858b147a4f" points="191.69 175.85 187.91 175.85 187.91 173.9 197.79 173.9 197.79 175.85 194.01 175.85 194.01 186.99 191.69 186.99 191.69 175.85"/><polygon class="baa6cc6a-6c93-4bbb-9009-91858b147a4f" points="201.97 173.9 209.84 173.9 209.84 175.85 204.29 175.85 204.29 179.21 208.99 179.21 208.99 181.16 204.29 181.16 204.29 185.03 210.04 185.03 210.04 186.99 201.97 186.99 201.97 173.9"/><path class="baa6cc6a-6c93-4bbb-9009-91858b147a4f" d="M284,354.31c0-4.28,2.68-6.82,6-6.82a5.2,5.2,0,0,1,3.76,1.65l-1.24,1.5A3.41,3.41,0,0,0,290,349.5c-2.13,0-3.65,1.8-3.65,4.74s1.4,4.79,3.6,4.79a3.67,3.67,0,0,0,2.79-1.34l1.24,1.46a5.21,5.21,0,0,1-4.12,1.9c-3.29,0-5.9-2.41-5.9-6.74" transform="translate(-69.93 -173.83)"/><polygon class="baa6cc6a-6c93-4bbb-9009-91858b147a4f" points="228.25 173.9 230.57 173.9 230.57 179.16 235.86 179.16 235.86 173.9 238.18 173.9 238.18 186.99 235.86 186.99 235.86 181.18 230.57 181.18 230.57 186.99 228.25 186.99 228.25 173.9"/><path class="baa6cc6a-6c93-4bbb-9009-91858b147a4f" d="M313.44,347.73h2.38l4.07,7.35,1.35,2.79h.08c-.11-1.35-.3-3-.3-4.46v-5.68h2.21v13.08h-2.38l-4.07-7.36-1.35-2.78h-.08c.11,1.38.3,2.95.3,4.41v5.73h-2.21Z" transform="translate(-69.93 -173.83)"/><path class="baa6cc6a-6c93-4bbb-9009-91858b147a4f" d="M327.87,354.22c0-4.24,2.36-6.73,5.77-6.73s5.77,2.51,5.77,6.73-2.36,6.83-5.77,6.83-5.77-2.6-5.77-6.83m9.15,0c0-2.94-1.32-4.72-3.38-4.72s-3.39,1.78-3.39,4.72,1.33,4.81,3.39,4.81,3.38-1.88,3.38-4.81" transform="translate(-69.93 -173.83)"/><polygon class="baa6cc6a-6c93-4bbb-9009-91858b147a4f" points="274.11 173.9 276.43 173.9 276.43 185.03 281.86 185.03 281.86 186.99 274.11 186.99 274.11 173.9"/><path class="baa6cc6a-6c93-4bbb-9009-91858b147a4f" d="M354.77,354.22c0-4.24,2.36-6.73,5.77-6.73s5.77,2.51,5.77,6.73-2.36,6.83-5.77,6.83-5.77-2.6-5.77-6.83m9.15,0c0-2.94-1.32-4.72-3.38-4.72s-3.39,1.78-3.39,4.72,1.33,4.81,3.39,4.81,3.38-1.88,3.38-4.81" transform="translate(-69.93 -173.83)"/><path class="baa6cc6a-6c93-4bbb-9009-91858b147a4f" d="M370.25,354.31c0-4.28,2.71-6.82,6.19-6.82a5.4,5.4,0,0,1,4,1.65l-1.25,1.5a3.53,3.53,0,0,0-2.64-1.14c-2.32,0-3.88,1.8-3.88,4.74s1.39,4.79,4,4.79a2.94,2.94,0,0,0,1.87-.57v-2.83H376v-1.9h4.55v5.77a6,6,0,0,1-4.18,1.55c-3.53,0-6.16-2.41-6.16-6.74" transform="translate(-69.93 -173.83)"/><path class="baa6cc6a-6c93-4bbb-9009-91858b147a4f" d="M387.68,356l-3.94-8.22h2.49l1.42,3.34c.38,1,.75,1.88,1.16,2.88h.08c.42-1,.83-1.9,1.21-2.88l1.42-3.34h2.42L390,356v4.86h-2.32Z" transform="translate(-69.93 -173.83)"/><path class="b7f15017-7113-4df9-8265-3a8dfb251f48" d="M71.82,332.86a1.89,1.89,0,0,0,0,3.78H220.7a13.27,13.27,0,0,1-1.35-3.78Z" transform="translate(-69.93 -173.83)"/><path class="b7f15017-7113-4df9-8265-3a8dfb251f48" d="M447.57,332.86H257.13a14.87,14.87,0,0,1-2,3.78h192.4a1.9,1.9,0,1,0,0-3.78" transform="translate(-69.93 -173.83)"/><path class="fe622ba5-0731-41da-a897-0deef799620a" d="M377.14,239.69a19.72,19.72,0,0,1,24-14,1.16,1.16,0,1,0,.59-2.24,22,22,0,0,0-26.85,15.69,1.15,1.15,0,1,0,2.23.59Z" transform="translate(-69.93 -173.83)"/><path class="fe622ba5-0731-41da-a897-0deef799620a" d="M400.83,231.54a1.16,1.16,0,0,0-.83-1.41,15.07,15.07,0,0,0-18.38,10.74,1.16,1.16,0,0,0,1.71,1.29,1.18,1.18,0,0,0,.53-.7,12.76,12.76,0,0,1,15.55-9.09,1.17,1.17,0,0,0,1.42-.83" transform="translate(-69.93 -173.83)"/><path class="fe622ba5-0731-41da-a897-0deef799620a" d="M388.34,242.63a1.16,1.16,0,0,0,.83,1.41,1.14,1.14,0,0,0,1.41-.82,5.79,5.79,0,0,1,7.07-4.13,1.15,1.15,0,0,0,1.41-.83,1.14,1.14,0,0,0-.82-1.41,8.1,8.1,0,0,0-9.9,5.78" transform="translate(-69.93 -173.83)"/></g></svg>